<svg id="Ebene_1" data-name="Ebene 1" xmlns="http://www.w3.org/2000/svg" xmlns:xlink="http://www.w3.org/1999/xlink" viewBox="0 0 8503.94 5102.36">
  <defs>
    <style>
      .cls-1 {
        fill: #fbc68c;
      }

      .cls-2 {
        fill: #878787;
      }

      .cls-3 {
        fill: url(#linear-gradient);
      }

      .cls-4 {
        fill: url(#linear-gradient-2);
      }

      .cls-5 {
        fill: #f18700;
      }
    </style>
    <linearGradient id="linear-gradient" x1="4507.13" y1="952.9" x2="3968.36" y2="2043.88" gradientUnits="userSpaceOnUse">
      <stop offset="0" stop-color="#f18700"/>
      <stop offset="0.04" stop-color="#f28d0d"/>
      <stop offset="0.13" stop-color="#f49e31"/>
      <stop offset="0.24" stop-color="#f7b96a"/>
      <stop offset="0.38" stop-color="#fbdeb9"/>
      <stop offset="0.49" stop-color="#fff"/>
      <stop offset="0.51" stop-color="#fef8f0"/>
      <stop offset="0.59" stop-color="#fbdab1"/>
      <stop offset="0.67" stop-color="#f8c17b"/>
      <stop offset="0.75" stop-color="#f5ac4f"/>
      <stop offset="0.82" stop-color="#f39c2d"/>
      <stop offset="0.89" stop-color="#f29014"/>
      <stop offset="0.95" stop-color="#f18905"/>
      <stop offset="1" stop-color="#f18700"/>
    </linearGradient>
    <linearGradient id="linear-gradient-2" x1="3875.9" y1="1191.39" x2="4414.65" y2="1868.38" gradientUnits="userSpaceOnUse">
      <stop offset="0" stop-color="#f18700"/>
      <stop offset="0.05" stop-color="#f18a06"/>
      <stop offset="0.11" stop-color="#f29217"/>
      <stop offset="0.18" stop-color="#f49f32"/>
      <stop offset="0.25" stop-color="#f6b159"/>
      <stop offset="0.34" stop-color="#f9c88a"/>
      <stop offset="0.42" stop-color="#fce4c5"/>
      <stop offset="0.49" stop-color="#fff"/>
      <stop offset="0.5" stop-color="#fffefd"/>
      <stop offset="0.56" stop-color="#fce3c3"/>
      <stop offset="0.62" stop-color="#f9ca8f"/>
      <stop offset="0.68" stop-color="#f6b663"/>
      <stop offset="0.75" stop-color="#f4a53f"/>
      <stop offset="0.81" stop-color="#f39823"/>
      <stop offset="0.87" stop-color="#f28e10"/>
      <stop offset="0.94" stop-color="#f18904"/>
      <stop offset="1" stop-color="#f18700"/>
    </linearGradient>
  </defs>
  <title>krohn_logo</title>
  <g>
    <path class="cls-1" d="M3735.69,762.06l485,225.88,486.81-227.29L4221.38,608.22Z"/>
    <path class="cls-2" d="M1635.06,3748c32.64,0,67.69-.37,95.57,17.5a91.61,91.61,0,0,1,15.64,13.17,88.93,88.93,0,0,1,12.78,19.6c9.92,21.73,12.3,46.92,12.3,96.33,0,22.6.46,45.07-2.86,67.66-4.71,37.49-17.5,54.63-32.2,66.54-25.05,20-61.95,20-93.2,20H1494.49V3748Zm-98.91,268.89h102.7c6.6,0,12.79,0,19.39-.51,22.25-.85,44-3.34,57.25-22.59,14.2-20.49,12.78-53.62,13.26-77.47,0-8.56.46-17.13.46-25.58,0-15.76-.93-31.14-2.32-46.91-1.94-21.24-4.77-42.09-27.92-53.63-14.69-6.83-30.82-8.06-64.4-8.06h-98.42Z"/>
    <path class="cls-2" d="M1836.66,3748v37.47h38.81V3748Zm0,87.38v213.39h38.81V3835.39Z"/>
    <path class="cls-2" d="M2092.69,3892.87c-.47-20-3.78-27.31-16.57-30.67-7.08-1.74-22.21-2.09-40.7-2.09a306,306,0,0,0-35.49,1.73c-7.08.73-15.61,2.1-20.34,7.2-4.29,4.2-5.71,11-5.71,23,.49,18.37,4.74,26.05,16.12,29.42,9.45,3,24.15,2.48,45.93,3.33,15.13.53,30.77,1.38,45.41,2.63,13.25,1.23,28.89,3.36,38.83,12.28,13.25,11.55,15.59,34.13,15.59,49.43,0,2.59,0,25.19-9.92,38.83-5.67,7.57-14.2,11.92-17.05,12.8-15.64,7.67-33.11,10.53-69.12,10.53-27.43,0-45.42-1.24-56.79-3.7-13.72-3-25.54-7.71-34-17.51-9-11.07-11.84-23-12.77-49.91l37.34.49c0,14,.47,21.24,3.33,27.69,6.64,14.9,24.13,15.27,54.42,15.27,3.8,0,22.24.51,37.4-1.61,12.78-1.74,19.87-5.6,23.66-9.43,4.26-4.6,6.19-12.28,6.19-25.58,0-15.77-2.38-23-11.39-27.18-9.93-4.35-39.27-4.35-49.68-4.73q-20.59-.56-41.16-2.61c-22.75-2.1-44-5.95-53-27.69-2.8-6.31-5.15-18.24-5.15-34.49,0-2.12-.53-24.71,9.93-37.37,16.1-20.49,59.14-20.11,83.26-20.11,3.8,0,30.77,0,49.73,2.6,19.38,2.48,27.91,6.82,34.55,12.29,14.19,12.43,14.66,29.43,14.19,45.2Z"/>
    <path class="cls-2" d="M2239,3834.88l.42,23.47c11.83-14.88,23.68-26.43,64.84-26.43,28.41,0,60.12,3.47,80,24.33,19.41,20.86,18.95,57.1,18.95,82.18,0,5.59.47,28.56-2.37,48.53-4.25,27.32-13.25,38.35-24.59,46.44-11.85,8.94-29.83,17.5-63.93,17.5-18.44,0-45.44-2.5-60.12-13.18-5.65-3.83-7.57-5.93-13.7-14.87v115.8h-38.32V3834.88Zm12.25,39.61c-4.25,3.86-8.94,10.32-10.89,22.6-1.36,8.19-1.88,26.46-1.88,49.41,0,2.61,0,21,1.88,34.52,1.44,9.81,4.26,20.48,12.32,27.68,8.51,7.69,26.05,12.77,53,12.77a184.69,184.69,0,0,0,20.36-1.22c22.21-3.86,31.22-14,35-33.65,3.32-17,3.32-43.82,3.32-46a356.26,356.26,0,0,0-2.38-39.12c-.47-3.85-1.41-22.2-16.07-32-14.23-9.31-45.46-8.09-45.92-8.09C2298.58,3861.33,2265.43,3861.33,2251.23,3874.49Z"/>
    <path class="cls-2" d="M2505.4,3748v300.77h-39.28V3748Z"/>
    <path class="cls-2" d="M2731.64,4048.77v-22.21c-.48.51-5.69,6.84-9.94,10.33-12.79,9.8-31.24,14.37-59.65,14.37-5.2,0-10.88-.36-16.1-.72-25.54-.88-35.46-3-49.23-9.44-18-8.44-29.83-25.56-29.83-55a127,127,0,0,1,3.84-28.91c1.41-4.74,6.14-23.83,30.77-33.28,11.81-4.23,30.27-6.32,59.15-6.32,27.43,0,44.5,2.1,54.89,7.17,8.05,4.35,11.83,9,15.63,14.92v-26.83c0-4.21.48-19.12-1.91-27.18-3.77-17.12-14.66-22.24-27-23.83-10.86-1.73-30.73-1.73-41.16-1.73-8,0-21.3,0-29.35,2.09-16.09,4.24-18,17-18.95,34.89h-37.38c1.43-23.85,2.37-29.3,7.1-38.36,11.38-20.86,41.67-25.94,79.52-25.94a383.34,383.34,0,0,1,49.24,3c12.29,1.37,24.09,3,36.45,11.55,5.67,3.85,8.94,7.21,9.91,8.94,14.67,17.51,12.34,45.57,12.34,47.66v144.87Zm-126.4-67.26c0,.37,0,14.39,3.81,23,1.44,3,4.25,8.57,13.26,12.42,10.85,4.57,36,5.45,47.8,5.45,52.07,0,61.95-12.28,61.95-39.6,0-11.92-3.27-20.85-9.88-26.81-4.27-3.86-12.32-6.47-13.27-6.47-9.44-3-26-5.08-51.59-4.59C2615.2,3945.26,2605.24,3951.22,2605.24,3981.51Z"/>
    <path class="cls-2" d="M2927.1,4019.86l53.5-184.1h38.77c-13.69,43.08-27,86.51-40.67,129.47-11.82,38.87-23.22,78-36.45,117.19-4.74,13.18-9,31-25.11,44.71-18.91,15.77-45.44,14.9-64.37,14v-28.06c7.58.37,14.7,1.25,22.25-.36,22.72-3.84,27.95-27.8,32.2-41,2.36-7.67,4.75-15.25,7.57-23h-12.27l-85.71-213H2857Z"/>
    <path class="cls-2" d="M3214.87,3892.87c-.51-20-3.82-27.31-16.57-30.67-7.11-1.74-22.25-2.09-40.72-2.09a306.28,306.28,0,0,0-35.5,1.73c-7.08.73-15.62,2.1-20.33,7.2-4.29,4.2-5.72,11-5.72,23,.5,18.37,4.75,26.05,16.11,29.42,9.47,3,24.15,2.48,45.93,3.33,15.14.53,30.77,1.38,45.41,2.63,13.26,1.23,28.89,3.36,38.84,12.28,13.24,11.55,15.6,34.13,15.6,49.43,0,2.59,0,25.19-9.94,38.83-5.66,7.57-14.21,11.92-17,12.8-15.64,7.67-33.1,10.53-69.11,10.53-27.45,0-45.43-1.24-56.8-3.7-13.72-3-25.56-7.71-34.05-17.51-9-11.07-11.86-23-12.79-49.91l37.4.49c0,14,.44,21.24,3.3,27.69,6.63,14.9,24.15,15.27,54.42,15.27,3.8,0,22.25.51,37.4-1.61,12.77-1.74,19.88-5.6,23.66-9.43,4.27-4.6,6.19-12.28,6.19-25.58,0-15.77-2.38-23-11.39-27.18-9.93-4.35-39.28-4.35-49.67-4.73q-20.59-.56-41.17-2.61c-22.72-2.1-44-5.95-53-27.69-2.81-6.31-5.18-18.24-5.18-34.49,0-2.12-.5-24.71,9.92-37.37,16.11-20.49,59.18-20.11,83.3-20.11,3.8,0,30.77,0,49.72,2.6,19.41,2.48,27.92,6.82,34.56,12.29,14.19,12.43,14.66,29.43,14.19,45.2Z"/>
    <path class="cls-2" d="M3664.46,3840.84c0-10.16,0-20-.46-29.79,0-3,.46-17-10.43-24.69-9.47-6.34-27-6.84-52.06-6.84-24.15,0-40.26,2.63-47.31,10.69-4.3,4.23-6.2,10.19-6.2,21.74,0,18.37,1.9,25.93,8.57,33.24,2.8,3,7.52,6.84,15.08,12.3,4.76,3.84,9.5,7.69,14.73,11.55,6.6,4.72,12.74,9.31,19.38,14,29.79,22.6,60.12,44.68,89.92,66.91a255.51,255.51,0,0,0,0-38l40.73-1.61c0,12.79,0,25.06-.47,37.49-.51,10.16-1.44,20.35-1.92,30.66l59.15,43.81L3771,4049.15,3721.72,4013c-2.34,3-8.05,11.05-16.07,17.38-18.95,14.87-48.31,19.59-99.88,19.59-18,0-35.51-.87-53.51-1.62-5.63-.47-39.24-.84-59.14-19.23-20.35-18.38-22.25-50.27-22.25-74.49,0-39.72,9-60.57,28.42-71.25,8-4.21,17-6.34,35.47-9.68-5.68-4.72-14.68-11.92-18.47-17.88-4.71-6.47-8.49-17.5-8.49-35,0-.88.47-23,4.25-35.4a49.77,49.77,0,0,1,6.63-13.13c17.51-22.6,58.66-24.71,85.63-24.71,1.91,0,34.55-.37,54,3.84,26.48,6,35.95,18.73,40.69,28.92,6.15,14,6.15,29.41,6.15,59.71Zm-102.22,53.76c-13.24,1.75-31.23,3.86-40.7,13.54-11.37,11.54-10.41,32.89-10.41,46.92,0,23,2.83,40.1,9.47,48.53,5.18,7.21,14.17,9.81,17,10.7,9.4,2.6,26,3.84,50.12,3.84,17.5,0,35,0,53-1.23,3.76-.51,26-.88,38.83-12.42,6.15-5.6,8.49-13.16,9.46-15.77Z"/>
    <path class="cls-2" d="M4010.88,3748l98.43,267.53L4212,3748h42.64l-117,300.77H4081l-115-300.77Z"/>
    <path class="cls-2" d="M4306.68,3950c.51,9.81,1,19.13,1.44,28.93,1.41,22.21,8.09,31.51,18.44,37.1,11.92,6.33,25.13,6.33,51.63,6.33,16.07,0,23.22,0,31.23-1.24s15.16-3.84,19.43-9.8c4.23-5.59,5.16-14.88,5.7-29.42h38.75c-.5,20.86-1.4,43.06-22.72,56.22-16.57,9.83-38.35,13.15-78.57,13.15-47.31,0-71.88-8-86.1-24.7-7.15-8.06-10.93-19.49-12.78-29.78-5.21-24.71-4.8-58.35-4.8-63.07,0-40.84,5.22-63.8,18.51-78.72,14.22-15.75,37.35-22.59,82-22.59,29.75,0,71.36,1.27,89.36,26.32,12.79,18.38,14.66,45.69,14.66,91.25Zm127.88-28.55c0-14.92.39-36.24-10-49-9.54-11.41-25.55-12.79-55.38-12.79-1.95,0-27.86-.88-42.65,6.46a42.06,42.06,0,0,0-8.44,6.33c-9.07,9.81-10,24.32-10.94,49Z"/>
    <path class="cls-2" d="M4570.8,3835.39v28.92c5.73-9.79,9.51-16.12,19.93-22.59,12.3-6.84,25.5-8.93,39.2-8.93,26.62,0,41.15,4.71,50.69,11.54a36.28,36.28,0,0,1,12.77,12.79,50.06,50.06,0,0,1,4.73,14c1.91,9.81,2.35,18.75,2.35,38.35l-36.87-.49c0-7.2,0-14.9-1-22.1,0-2.1,0-13.16-8.48-19.13-5.67-3.85-16.09-5.95-31.74-5.95-4.17,0-20.84-.51-33.57,7.2-16.55,9.81-17.59,29.42-18,63.43v116.31h-37.42V3835.39Z"/>
    <path class="cls-2" d="M4788.52,3834.88l.49,23.47c11.75-14.88,23.71-26.43,64.76-26.43,28.47,0,60.15,3.47,80.09,24.33,19.35,20.86,18.87,57.1,18.87,82.18,0,5.59.49,28.56-2.34,48.53-4.25,27.32-13.24,38.35-24.59,46.44-11.87,8.94-29.85,17.5-63.94,17.5-18.42,0-45.42-2.5-60-13.18-5.72-3.83-7.59-5.93-13.74-14.87v115.8h-38.32V3834.88Zm12.23,39.61c-4.21,3.86-8.89,10.32-10.76,22.6-1.47,8.19-1.92,26.46-1.92,49.41,0,2.61,0,21,1.92,34.52,1.35,9.81,4.23,20.48,12.28,27.68,8.5,7.69,26,12.77,53,12.77a185.64,185.64,0,0,0,20.36-1.22c22.18-3.86,31.2-14,35-33.65,3.29-17,3.29-43.82,3.29-46a361.22,361.22,0,0,0-2.35-39.12c-.48-3.85-1.41-22.2-16.07-32-14.23-9.31-45.44-8.09-45.92-8.09C4848.12,3861.33,4815.06,3861.33,4800.75,3874.49Z"/>
    <path class="cls-2" d="M5173.33,4048.77v-22.21c-.52.51-5.72,6.84-10.05,10.33-12.67,9.8-31.18,14.37-59.61,14.37-5.2,0-10.78-.36-16-.72-25.58-.88-35.54-3-49.27-9.44-18-8.44-29.82-25.56-29.82-55a130.18,130.18,0,0,1,3.77-28.91c1.43-4.74,6.15-23.83,30.71-33.28,11.89-4.23,30.32-6.32,59.26-6.32,27.4,0,44.43,2.1,54.84,7.17,8.08,4.35,11.82,9,15.63,14.92v-26.83c0-4.21.52-19.12-1.84-27.18-3.84-17.12-14.76-22.24-27.08-23.83-10.91-1.73-30.63-1.73-41.07-1.73-8.07,0-21.35,0-29.42,2.09-16,4.24-17.93,17-18.87,34.89h-37.4c1.38-23.85,2.31-29.3,7.08-38.36,11.4-20.86,41.67-25.94,79.46-25.94a382.64,382.64,0,0,1,49.26,3c12.33,1.37,24.11,3,36.38,11.55,5.73,3.85,9,7.21,10,8.94,14.65,17.51,12.29,45.57,12.29,47.66v144.87ZM5047,3981.51c0,.37,0,14.39,3.75,23,1.43,3,4.25,8.57,13.25,12.42,10.94,4.57,36,5.45,47.79,5.45,52.14,0,61.94-12.28,61.94-39.6,0-11.92-3.21-20.85-9.8-26.81-4.35-3.86-12.44-6.47-13.29-6.47-9.54-3-26.08-5.08-51.65-4.59C5056.87,3945.26,5047,3951.22,5047,3981.51Z"/>
    <path class="cls-2" d="M5434,3908.14c0-2.1,1-17-2.73-27.19-6.22-15.77-23.71-19.12-55.84-19.12-28.46,0-43.1,2.48-52.17,13.15-4.7,5.59-6.56,11.56-8.43,25.09-2,16.25-2,32.39-2,48.54,0,3.09,0,23.95,2.38,38.35,2.82,15.78,9.54,23.1,16.66,27.32,9.9,5.58,21.7,6.81,45.43,6.81.46,0,23.71.36,36-2.12,20.71-4.7,23.55-18.72,23.09-49.41h39.31c-.47,18.25-1,42.57-13.77,58.35-12.77,15.29-40.71,23.33-86.14,23.33-28.82,0-67.17-2.12-86.16-25.95-15.16-19.6-16.48-56.21-16.48-78.82a379.13,379.13,0,0,1,2.33-45.94c3.35-22.21,10.92-43.92,33.14-56.71,13.66-7.57,30.33-11.43,63.47-11.43,43.4,0,66.27,4.22,82.28,17.38,14.26,12,18,26.43,18,58.35Z"/>
    <path class="cls-2" d="M5568.49,3748v173.8h11.28l84.76-86h48.31l-104.13,99.31,115.06,113.7h-49.29l-95.58-99.67h-11.45v99.67h-38.23V3748Z"/>
    <path class="cls-2" d="M5801.36,3834.88v141.54c.47,11.91.86,19.12,2.83,24.7,7.07,22.09,33.17,21.73,49.18,21.73,1.48,0,21.83,0,34.52-4.34,2.47-.38,7.57-2.5,13.79-6.84,18-14,18.48-34,18.48-53.25V3835.76h38.22v213h-39.21V4021.1c-9.93,14.4-19.88,20.47-33.67,24.72-18,5.44-35,5.44-40.74,5.44-25.06,0-57.19-5.44-71.86-28.92-9.43-15.77-9-34.87-9-40V3834.88Z"/>
    <path class="cls-2" d="M6066.79,3835.39v26.45c6.66-9.81,10.91-12.78,16.12-16.65,17-11.14,38.35-12.4,58.72-12.4,5.2,0,10.42,0,15.65.51,8.4.37,50.09,2.09,63.42,33.14,4.71,12.41,5.08,26.43,5.08,39.23v143.11h-37.71v-138.9c0-11.05,0-25.06-7.72-34.88-7.08-8.93-20.73-13.15-45.79-13.15-21.33,0-35.17,3.35-43.57,7.58-23.25,11.54-23.25,36.25-23.25,56.72v122.64h-38.36V3835.39Z"/>
    <path class="cls-2" d="M6453,3835.39h38V4050.9c-.5,38.36-3.86,54.52-16.67,67.79-8.08,8-14.62,11.42-18.49,13.17-12.29,5.56-33.51,9.3-64.27,9.3-19.42,0-53.52,0-72.87-12.66-2.38-1.36-5.21-3.46-9.57-8.55-12.28-15.4-12.28-33.67-12.68-49.07h35.87c0,10.68-.38,29.05,15.17,36.62,7.6,3.48,23.22,5.23,41.21,5.23,8.09,0,16.17-.52,24.2-.88,2.23-.5,14.65-.5,24.6-6.43a27.89,27.89,0,0,0,13.13-16.16c3.89-14.52,3.89-52.89,3.89-66.41-7.57,9.81-15.15,17-26.1,21.22-8.91,3.86-23.22,7.19-44.93,7.19-39.21,0-64.4-8-77.6-25.44-12.77-16.28-17.12-44.81-17.12-85.27,0-21.73,0-54.53,13.29-76.24,5.7-8.94,15.63-17,25.58-21.72,11.42-5.46,28.9-9.3,55.36-9.3,25.06,0,39.7,3.33,51.16,9.79,1.35.76,8.05,4.59,11.77,9.31,2.85,3,4.72,6,7.1,13.16ZM6355,3866.91c-3.24.87-15.68,4.23-22.25,16.15-4.71,9.43-6.12,27.69-6.12,52.38,0,12.43.4,25.22,1.41,37.51,1,11,2.32,22.59,8.93,32.39a44.5,44.5,0,0,0,7.59,8.05c7.55,5.59,23.7,9.45,43.57,9.45,19.46,0,44.88-2.61,55.84-19.63,6.22-9.79,7.55-22.59,8.95-43.94,0-6.32.47-12.78.47-19.6a306,306,0,0,0-1.87-35.76c-1.33-11.9-3.83-19.6-8.4-25.07-10.57-12.78-30-17-58.36-16.28C6375.38,3863.08,6364.94,3863.94,6355,3866.91Z"/>
    <path class="cls-2" d="M6591.26,3950c.34,9.81.88,19.13,1.35,28.93,1.5,22.21,8.08,31.51,18.5,37.1,11.82,6.33,25.11,6.33,51.5,6.33,16.17,0,23.24,0,31.33-1.24s15.12-3.84,19.37-9.8c4.32-5.59,5.2-14.88,5.7-29.42h38.87c-.52,20.86-1.53,43.06-22.76,56.22-16.61,9.83-38.36,13.15-78.58,13.15-47.29,0-72-8-86.11-24.7-7.12-8.06-11-19.49-12.82-29.78-5.21-24.71-4.73-58.35-4.73-63.07,0-40.84,5.21-63.8,18.41-78.72,14.24-15.75,37.49-22.59,81.91-22.59,29.77,0,71.53,1.27,89.51,26.32,12.78,18.38,14.65,45.69,14.65,91.25ZM6719,3921.43c0-14.92.52-36.24-10-49-9.41-11.41-25.56-12.79-55.33-12.79-1.87,0-28-.88-42.61,6.46a40.24,40.24,0,0,0-8.55,6.33c-8.95,9.81-10,24.32-11,49Z"/>
    <path class="cls-2" d="M6854.8,3835.39v26.45c6.71-9.81,10.91-12.78,16.17-16.65,17-11.14,38.35-12.4,58.71-12.4,5.21,0,10.26,0,15.48.51,8.57.37,50.33,2.09,63.47,33.14,4.84,12.41,5.21,26.43,5.21,39.23v143.11H6976v-138.9c0-11.05,0-25.06-7.57-34.88-7.08-8.93-20.73-13.15-46-13.15-21.22,0-35,3.35-43.46,7.58-23.19,11.54-23.19,36.25-23.19,56.72v122.64h-38.36V3835.39Z"/>
    <path class="cls-2" d="M1242.2,2648v301.45h127L1708.78,2648h344.16c-48.5,38.12-97,76.22-143.21,116.66-47.35,40.42-94.7,80.82-140.89,122.39-63.5,54.31-127.06,109.72-190.56,164l522,412.3h-358l-370.75-309.51H1241v309.51H988.11V2648Z"/>
    <path class="cls-2" d="M3046.12,2648c83.17-4.61,164-8.08,228.68,43.89a173.64,173.64,0,0,1,40.45,46.19c34.63,60.06,33.46,151.3,33.46,162.85,0,8.09,0,84.32-16.18,135.12-2.29,5.75-9.22,23.11-19.6,37-39.28,56.59-117.81,70.44-177.86,80.85,67,0,132.81,1.15,172.08,52,28.86,35.78,28.86,72.75,28.86,115.48v142.06H3083.08V3353.66c0-21.95-1.13-43.91-13.85-64.69-18.48-26.57-48.52-30-80.86-33.47H2561.07v207.87H2305.85V2648Zm-483.9,405.38h399.61c47.35,0,78.52-2.31,98.16-12.7,36.92-20.79,38.13-79.72,38.13-85.48s0-57.75-22-84.3c-19.63-23.11-55.44-25.42-92.39-27.72H2562.22Z"/>
    <path class="cls-2" d="M3632.81,2876.68c1.14-12.71,3.45-25.4,5.77-38.11,12.7-63.54,42.73-117.8,100.48-151.29,42.73-25.42,82-32.33,130.5-39.28,99.32-5.76,198.65-10.4,299.12-10.4,117.77,0,235.6,4.63,354.56,10.4,12.69,1.15,25.37,3.45,38.09,5.78,33.51,5.77,117.82,22,167.47,109.71,28.89,53.13,33.48,105.09,36.92,164,2.33,58.9,4.67,116.65,2.33,175.53-1.14,38.12-4.63,76.23-6.91,115.51-8.09,60-16.17,107.4-56.58,157.06-62.38,76.23-158.24,86.61-248.32,93.55-80.86,1.16-162.84,3.45-244.84,3.45-93.57,0-185.93-2.29-279.49-4.6-72.76-4.62-143.21-9.26-206.73-53.15-98.16-68.1-100.46-195.18-100.46-299.11Zm735.67,393.81c53.12-4.61,101.63-9.23,127-53.12,10.37-17.31,15-34.64,19.59-73.92v-176.7c-1.11-18.45-2.25-32.32-8-49.64-19.65-64.69-67-70.45-131.68-75.09H4026.62c-56.58,3.47-78.54,10.41-101.63,27.73-16.17,11.55-23.09,23.1-26.57,30-9.23,17.34-12.71,39.28-13.83,45.05-3.48,28.86-4.64,72.77-5.78,136.27,2.3,69.32,6.9,119,25.39,145.52,20.79,28.89,62.36,38.11,131.68,43.88Z"/>
    <path class="cls-2" d="M5304.57,2648v298h535.82V2648h251.77v815.37H5839.25v-317.6h-537v317.6h-252.9V2648Z"/>
    <path class="cls-2" d="M6796.17,2648c89,108.56,177.86,216,264.5,325.67,78.54,99.34,151.16,201,228.57,302.59l-4.64-374.18V2648h235.6v815.37h-396c-95.87-116.63-191.73-233.28-285.28-353.4-69.31-88.93-133.06-180.15-200-270.25v623.65H6401V2648Z"/>
    <g>
      <circle class="cls-2" cx="4805.23" cy="1814.68" r="19.96"/>
      <g>
        <circle class="cls-2" cx="4884.9" cy="1814.68" r="19.96"/>
        <circle class="cls-2" cx="4964.56" cy="1814.68" r="19.96"/>
        <circle class="cls-2" cx="5044.23" cy="1814.68" r="19.96"/>
        <circle class="cls-2" cx="5123.9" cy="1814.68" r="19.96"/>
        <circle class="cls-2" cx="5203.56" cy="1814.68" r="19.96"/>
        <circle class="cls-2" cx="5283.23" cy="1814.68" r="19.96"/>
        <circle class="cls-2" cx="5362.9" cy="1814.68" r="19.96"/>
        <circle class="cls-2" cx="5442.56" cy="1814.68" r="19.96"/>
        <circle class="cls-2" cx="5522.23" cy="1814.68" r="19.96"/>
        <circle class="cls-2" cx="5601.9" cy="1814.68" r="19.96"/>
        <circle class="cls-2" cx="5681.56" cy="1814.68" r="19.96"/>
        <circle class="cls-2" cx="5761.23" cy="1814.68" r="19.96"/>
        <circle class="cls-2" cx="5840.89" cy="1814.68" r="19.96"/>
        <circle class="cls-2" cx="5920.56" cy="1814.68" r="19.96"/>
        <circle class="cls-2" cx="6000.23" cy="1814.68" r="19.96"/>
        <circle class="cls-2" cx="6079.89" cy="1814.68" r="19.96"/>
        <circle class="cls-2" cx="6159.56" cy="1814.68" r="19.96"/>
        <circle class="cls-2" cx="6239.23" cy="1814.68" r="19.96"/>
        <circle class="cls-2" cx="6318.89" cy="1814.68" r="19.96"/>
        <circle class="cls-2" cx="6398.56" cy="1814.68" r="19.96"/>
        <circle class="cls-2" cx="6478.23" cy="1814.68" r="19.96"/>
        <circle class="cls-2" cx="6557.89" cy="1814.68" r="19.96"/>
        <circle class="cls-2" cx="6637.56" cy="1814.68" r="19.96"/>
        <circle class="cls-2" cx="6717.23" cy="1814.68" r="19.96"/>
        <circle class="cls-2" cx="6796.89" cy="1814.68" r="19.96"/>
        <circle class="cls-2" cx="6876.56" cy="1814.68" r="19.96"/>
        <circle class="cls-2" cx="6956.23" cy="1814.68" r="19.96"/>
        <circle class="cls-2" cx="7035.89" cy="1814.68" r="19.96"/>
        <circle class="cls-2" cx="7115.56" cy="1814.68" r="19.96"/>
        <circle class="cls-2" cx="7195.23" cy="1814.68" r="19.96"/>
        <circle class="cls-2" cx="7274.89" cy="1814.68" r="19.96"/>
        <circle class="cls-2" cx="7354.56" cy="1814.68" r="19.96"/>
        <circle class="cls-2" cx="7434.22" cy="1814.68" r="19.96"/>
        <circle class="cls-2" cx="7513.89" cy="1814.68" r="19.96"/>
        <circle class="cls-2" cx="7593.56" cy="1814.68" r="19.96"/>
        <circle class="cls-2" cx="7673.22" cy="1814.68" r="19.96"/>
        <circle class="cls-2" cx="7752.89" cy="1814.68" r="19.96"/>
      </g>
      <circle class="cls-2" cx="8279.23" cy="3945.19" r="19.96"/>
      <circle class="cls-2" cx="8279.23" cy="3865.52" r="19.96"/>
      <circle class="cls-2" cx="8279.23" cy="3785.85" r="19.96"/>
      <circle class="cls-2" cx="8279.23" cy="3706.19" r="19.96"/>
      <circle class="cls-2" cx="8279.23" cy="3626.52" r="19.96"/>
      <circle class="cls-2" cx="8279.23" cy="3546.86" r="19.96"/>
      <circle class="cls-2" cx="8279.23" cy="3467.19" r="19.96"/>
      <circle class="cls-2" cx="8279.23" cy="3387.52" r="19.96"/>
      <circle class="cls-2" cx="8279.23" cy="3307.86" r="19.96"/>
      <circle class="cls-2" cx="8279.23" cy="3228.19" r="19.96"/>
      <circle class="cls-2" cx="8279.23" cy="3148.52" r="19.96"/>
      <circle class="cls-2" cx="8279.23" cy="3068.86" r="19.96"/>
      <circle class="cls-2" cx="8279.23" cy="2989.19" r="19.96"/>
      <circle class="cls-2" cx="8279.23" cy="2909.52" r="19.96"/>
      <circle class="cls-2" cx="8279.23" cy="2829.86" r="19.96"/>
      <circle class="cls-2" cx="8279.23" cy="2750.19" r="19.96"/>
      <circle class="cls-2" cx="8279.23" cy="2670.52" r="19.96"/>
      <circle class="cls-2" cx="8279.23" cy="2590.86" r="19.96"/>
      <circle class="cls-2" cx="8279.23" cy="2511.19" r="19.96"/>
      <circle class="cls-2" cx="8279.23" cy="2431.52" r="19.96"/>
      <circle class="cls-2" cx="8279.23" cy="2351.86" r="19.96"/>
      <circle class="cls-2" cx="8279.23" cy="2272.19" r="19.96"/>
      <circle class="cls-2" cx="8275.71" cy="2192.72" r="19.96"/>
      <circle class="cls-2" cx="8258.04" cy="2115.27" r="19.96"/>
      <circle class="cls-2" cx="8226.39" cy="2042.04" r="19.96"/>
      <circle class="cls-2" cx="8182.13" cy="1975.65" r="19.96"/>
      <circle class="cls-2" cx="8126.34" cy="1918.92" r="19.96"/>
      <circle class="cls-2" cx="8061.82" cy="1873.11" r="19.96"/>
      <circle class="cls-2" cx="7989.51" cy="1840.07" r="19.96"/>
      <circle class="cls-2" cx="4936.2" cy="4612.11" r="19.96"/>
      <circle class="cls-2" cx="5015.86" cy="4612.11" r="19.96"/>
      <circle class="cls-2" cx="5095.53" cy="4612.11" r="19.96"/>
      <circle class="cls-2" cx="5175.19" cy="4612.11" r="19.96"/>
      <circle class="cls-2" cx="5254.86" cy="4612.11" r="19.96"/>
      <circle class="cls-2" cx="5334.53" cy="4612.11" r="19.96"/>
      <circle class="cls-2" cx="5414.19" cy="4612.11" r="19.96"/>
      <circle class="cls-2" cx="5493.86" cy="4612.11" r="19.96"/>
      <circle class="cls-2" cx="5573.53" cy="4612.11" r="19.96"/>
      <circle class="cls-2" cx="5653.19" cy="4612.11" r="19.96"/>
      <circle class="cls-2" cx="5732.86" cy="4612.11" r="19.96"/>
      <circle class="cls-2" cx="5812.53" cy="4612.11" r="19.96"/>
      <circle class="cls-2" cx="5892.19" cy="4612.11" r="19.96"/>
      <circle class="cls-2" cx="5971.86" cy="4612.11" r="19.96"/>
      <circle class="cls-2" cx="6051.53" cy="4612.11" r="19.96"/>
      <circle class="cls-2" cx="6131.19" cy="4612.11" r="19.96"/>
      <circle class="cls-2" cx="6210.86" cy="4612.11" r="19.96"/>
      <circle class="cls-2" cx="6290.53" cy="4612.11" r="19.96"/>
      <circle class="cls-2" cx="6370.19" cy="4612.11" r="19.96"/>
      <circle class="cls-2" cx="6449.86" cy="4612.11" r="19.96"/>
      <circle class="cls-2" cx="6529.52" cy="4612.11" r="19.96"/>
      <circle class="cls-2" cx="6609.19" cy="4612.11" r="19.96"/>
      <circle class="cls-2" cx="6688.86" cy="4612.11" r="19.96"/>
      <circle class="cls-2" cx="6768.52" cy="4612.11" r="19.96"/>
      <circle class="cls-2" cx="6848.19" cy="4612.11" r="19.96"/>
      <circle class="cls-2" cx="6927.86" cy="4612.11" r="19.96"/>
      <circle class="cls-2" cx="7007.52" cy="4612.11" r="19.96"/>
      <circle class="cls-2" cx="7087.19" cy="4612.11" r="19.96"/>
      <circle class="cls-2" cx="7166.86" cy="4612.11" r="19.96"/>
      <circle class="cls-2" cx="7246.52" cy="4612.11" r="19.96"/>
      <circle class="cls-2" cx="7326.19" cy="4612.11" r="19.96"/>
      <circle class="cls-2" cx="7405.86" cy="4612.11" r="19.96"/>
      <circle class="cls-2" cx="7485.52" cy="4612.11" r="19.96"/>
      <circle class="cls-2" cx="7565.19" cy="4612.11" r="19.96"/>
      <circle class="cls-2" cx="7644.86" cy="4612.11" r="19.96"/>
      <circle class="cls-2" cx="7724.52" cy="4612.11" r="19.96"/>
      <circle class="cls-2" cx="7804.19" cy="4612.11" r="19.96"/>
      <circle class="cls-2" cx="7883.46" cy="4610.57" r="19.96"/>
      <circle class="cls-2" cx="7961.97" cy="4596.1" r="19.96"/>
      <circle class="cls-2" cx="8035.91" cy="4567.88" r="19.96"/>
      <circle class="cls-2" cx="8104.1" cy="4526.66" r="19.96"/>
      <circle class="cls-2" cx="8163.31" cy="4473.2" r="19.96"/>
      <circle class="cls-2" cx="8211.88" cy="4410.52" r="19.96"/>
      <circle class="cls-2" cx="8248.16" cy="4339.57" r="19.96"/>
      <circle class="cls-2" cx="8270.77" cy="4263.2" r="19.96"/>
      <circle class="cls-2" cx="8279.31" cy="4184.27" r="19.96"/>
      <circle class="cls-2" cx="8279.12" cy="4104.64" r="19.96"/>
      <circle class="cls-2" cx="8279.3" cy="4024.82" r="19.96"/>
      <g>
        <circle class="cls-2" cx="1988.31" cy="4612.11" r="19.96"/>
        <circle class="cls-2" cx="2067.97" cy="4612.11" r="19.96"/>
        <circle class="cls-2" cx="2147.64" cy="4612.11" r="19.96"/>
        <circle class="cls-2" cx="2227.31" cy="4612.11" r="19.96"/>
        <circle class="cls-2" cx="2306.97" cy="4612.11" r="19.96"/>
        <circle class="cls-2" cx="2386.64" cy="4612.11" r="19.96"/>
        <circle class="cls-2" cx="2466.31" cy="4612.11" r="19.96"/>
        <circle class="cls-2" cx="2545.97" cy="4612.11" r="19.96"/>
        <circle class="cls-2" cx="2625.64" cy="4612.11" r="19.96"/>
        <circle class="cls-2" cx="2705.31" cy="4612.11" r="19.96"/>
        <circle class="cls-2" cx="2784.97" cy="4612.11" r="19.96"/>
        <circle class="cls-2" cx="2864.64" cy="4612.11" r="19.96"/>
        <circle class="cls-2" cx="2944.31" cy="4612.11" r="19.96"/>
        <circle class="cls-2" cx="3023.97" cy="4612.11" r="19.96"/>
        <circle class="cls-2" cx="3103.64" cy="4612.11" r="19.96"/>
        <circle class="cls-2" cx="3183.3" cy="4612.11" r="19.96"/>
        <circle class="cls-2" cx="3262.97" cy="4612.11" r="19.96"/>
        <circle class="cls-2" cx="3342.64" cy="4612.11" r="19.96"/>
        <circle class="cls-2" cx="3422.3" cy="4612.11" r="19.96"/>
        <circle class="cls-2" cx="3501.97" cy="4612.11" r="19.96"/>
        <circle class="cls-2" cx="3581.64" cy="4612.11" r="19.96"/>
        <circle class="cls-2" cx="3661.3" cy="4612.11" r="19.96"/>
        <circle class="cls-2" cx="3740.97" cy="4612.11" r="19.96"/>
        <circle class="cls-2" cx="3820.64" cy="4612.11" r="19.96"/>
        <circle class="cls-2" cx="3900.3" cy="4612.11" r="19.96"/>
        <circle class="cls-2" cx="3979.97" cy="4612.11" r="19.96"/>
        <circle class="cls-2" cx="4059.64" cy="4612.11" r="19.96"/>
        <circle class="cls-2" cx="4139.3" cy="4612.11" r="19.96"/>
        <circle class="cls-2" cx="4218.97" cy="4612.11" r="19.96"/>
        <circle class="cls-2" cx="4298.64" cy="4612.11" r="19.96"/>
        <circle class="cls-2" cx="4378.3" cy="4612.11" r="19.96"/>
        <circle class="cls-2" cx="4457.97" cy="4612.11" r="19.96"/>
        <circle class="cls-2" cx="4537.64" cy="4612.11" r="19.96"/>
        <circle class="cls-2" cx="4617.3" cy="4612.11" r="19.96"/>
        <circle class="cls-2" cx="4696.97" cy="4612.11" r="19.96"/>
        <circle class="cls-2" cx="4776.63" cy="4612.11" r="19.96"/>
        <circle class="cls-2" cx="4856.3" cy="4612.11" r="19.96"/>
      </g>
      <g>
        <circle class="cls-2" cx="736.85" cy="1815.45" r="19.96"/>
        <circle class="cls-2" cx="816.52" cy="1815.45" r="19.96"/>
        <circle class="cls-2" cx="896.18" cy="1815.45" r="19.96"/>
        <circle class="cls-2" cx="975.85" cy="1815.45" r="19.96"/>
        <circle class="cls-2" cx="1055.52" cy="1815.45" r="19.96"/>
        <circle class="cls-2" cx="1135.18" cy="1815.45" r="19.96"/>
        <circle class="cls-2" cx="1214.85" cy="1815.45" r="19.96"/>
        <circle class="cls-2" cx="1294.51" cy="1815.45" r="19.96"/>
        <circle class="cls-2" cx="1374.18" cy="1815.45" r="19.96"/>
        <circle class="cls-2" cx="1453.85" cy="1815.45" r="19.96"/>
        <circle class="cls-2" cx="1533.51" cy="1815.45" r="19.96"/>
        <circle class="cls-2" cx="1613.18" cy="1815.45" r="19.96"/>
        <circle class="cls-2" cx="1692.85" cy="1815.45" r="19.96"/>
        <circle class="cls-2" cx="1772.51" cy="1815.45" r="19.96"/>
        <circle class="cls-2" cx="1852.18" cy="1815.45" r="19.96"/>
        <circle class="cls-2" cx="1931.85" cy="1815.45" r="19.96"/>
        <circle class="cls-2" cx="2011.51" cy="1815.45" r="19.96"/>
        <circle class="cls-2" cx="2091.18" cy="1815.45" r="19.96"/>
        <circle class="cls-2" cx="2170.85" cy="1815.45" r="19.96"/>
        <circle class="cls-2" cx="2250.51" cy="1815.45" r="19.96"/>
        <circle class="cls-2" cx="2330.18" cy="1815.45" r="19.96"/>
        <circle class="cls-2" cx="2409.85" cy="1815.45" r="19.96"/>
        <circle class="cls-2" cx="2489.51" cy="1815.45" r="19.96"/>
        <circle class="cls-2" cx="2569.18" cy="1815.45" r="19.96"/>
        <circle class="cls-2" cx="2648.85" cy="1815.45" r="19.96"/>
        <circle class="cls-2" cx="2728.51" cy="1815.45" r="19.96"/>
        <circle class="cls-2" cx="2808.18" cy="1815.45" r="19.96"/>
        <circle class="cls-2" cx="2887.85" cy="1815.45" r="19.96"/>
        <circle class="cls-2" cx="2967.51" cy="1815.45" r="19.96"/>
        <circle class="cls-2" cx="3047.18" cy="1815.45" r="19.96"/>
        <circle class="cls-2" cx="3126.84" cy="1815.45" r="19.96"/>
        <circle class="cls-2" cx="3206.51" cy="1815.45" r="19.96"/>
        <circle class="cls-2" cx="3286.18" cy="1815.45" r="19.96"/>
        <circle class="cls-2" cx="3365.84" cy="1815.45" r="19.96"/>
        <circle class="cls-2" cx="3445.51" cy="1815.45" r="19.96"/>
        <circle class="cls-2" cx="3525.18" cy="1815.45" r="19.96"/>
        <circle class="cls-2" cx="3604.84" cy="1815.45" r="19.96"/>
      </g>
      <circle class="cls-2" cx="224.63" cy="4197.69" r="19.96"/>
      <circle class="cls-2" cx="224.63" cy="4118.03" r="19.96"/>
      <circle class="cls-2" cx="224.63" cy="4038.36" r="19.96"/>
      <circle class="cls-2" cx="224.63" cy="3958.69" r="19.96"/>
      <circle class="cls-2" cx="224.63" cy="3879.03" r="19.96"/>
      <circle class="cls-2" cx="224.63" cy="3799.36" r="19.96"/>
      <circle class="cls-2" cx="224.63" cy="3719.7" r="19.96"/>
      <circle class="cls-2" cx="224.63" cy="3640.03" r="19.96"/>
      <circle class="cls-2" cx="224.63" cy="3560.36" r="19.96"/>
      <circle class="cls-2" cx="224.63" cy="3480.7" r="19.96"/>
      <circle class="cls-2" cx="224.63" cy="3401.03" r="19.96"/>
      <circle class="cls-2" cx="224.63" cy="3321.36" r="19.96"/>
      <circle class="cls-2" cx="224.63" cy="3241.7" r="19.96"/>
      <circle class="cls-2" cx="224.63" cy="3162.03" r="19.96"/>
      <circle class="cls-2" cx="224.63" cy="3082.36" r="19.96"/>
      <circle class="cls-2" cx="224.63" cy="3002.7" r="19.96"/>
      <circle class="cls-2" cx="224.63" cy="2923.03" r="19.96"/>
      <circle class="cls-2" cx="224.63" cy="2843.36" r="19.96"/>
      <circle class="cls-2" cx="224.63" cy="2763.7" r="19.96"/>
      <circle class="cls-2" cx="224.63" cy="2684.03" r="19.96"/>
      <circle class="cls-2" cx="224.63" cy="2604.36" r="19.96"/>
      <circle class="cls-2" cx="224.63" cy="2524.7" r="19.96"/>
      <circle class="cls-2" cx="224.63" cy="2445.03" r="19.96"/>
      <circle class="cls-2" cx="224.63" cy="2365.37" r="19.96"/>
      <circle class="cls-2" cx="224.63" cy="2285.7" r="19.96"/>
      <circle class="cls-2" cx="226.24" cy="2206.03" r="19.96"/>
      <circle class="cls-2" cx="241.47" cy="2127.74" r="19.96"/>
      <circle class="cls-2" cx="270.86" cy="2053.72" r="19.96"/>
      <circle class="cls-2" cx="312.8" cy="1986.68" r="19.96"/>
      <circle class="cls-2" cx="366.57" cy="1927.9" r="19.96"/>
      <circle class="cls-2" cx="430.13" cy="1879.61" r="19.96"/>
      <circle class="cls-2" cx="501.33" cy="1844.38" r="19.96"/>
      <circle class="cls-2" cx="578.19" cy="1822.46" r="19.96"/>
      <circle class="cls-2" cx="656.93" cy="1815.24" r="19.96"/>
      <circle class="cls-2" cx="554.86" cy="4599.7" r="19.96"/>
      <circle class="cls-2" cx="479.18" cy="4573.42" r="19.96"/>
      <circle class="cls-2" cx="410.21" cy="4534.53" r="19.96"/>
      <circle class="cls-2" cx="349.55" cy="4482.94" r="19.96"/>
      <circle class="cls-2" cx="298.99" cy="4422.01" r="19.96"/>
      <circle class="cls-2" cx="260.52" cy="4351.95" r="19.96"/>
      <circle class="cls-2" cx="235.46" cy="4276.6" r="19.96"/>
      <circle class="cls-2" cx="633.31" cy="4612.11" r="19.96"/>
      <circle class="cls-2" cx="712.98" cy="4612.11" r="19.96"/>
      <circle class="cls-2" cx="792.64" cy="4612.11" r="19.96"/>
      <circle class="cls-2" cx="872.31" cy="4612.11" r="19.96"/>
      <circle class="cls-2" cx="951.98" cy="4612.11" r="19.96"/>
      <circle class="cls-2" cx="1031.64" cy="4612.11" r="19.96"/>
      <circle class="cls-2" cx="1111.31" cy="4612.11" r="19.96"/>
      <circle class="cls-2" cx="1190.98" cy="4612.11" r="19.96"/>
      <circle class="cls-2" cx="1270.64" cy="4612.11" r="19.96"/>
      <circle class="cls-2" cx="1350.31" cy="4612.11" r="19.96"/>
      <circle class="cls-2" cx="1429.98" cy="4612.11" r="19.96"/>
      <circle class="cls-2" cx="1509.64" cy="4612.11" r="19.96"/>
      <circle class="cls-2" cx="1589.31" cy="4612.11" r="19.96"/>
      <circle class="cls-2" cx="1668.98" cy="4612.11" r="19.96"/>
      <circle class="cls-2" cx="1748.64" cy="4612.11" r="19.96"/>
      <circle class="cls-2" cx="1828.31" cy="4612.11" r="19.96"/>
      <circle class="cls-2" cx="1907.98" cy="4612.11" r="19.96"/>
      <circle class="cls-2" cx="7832.56" cy="1814.68" r="19.96"/>
      <circle class="cls-2" cx="7912.47" cy="1820.27" r="19.96"/>
    </g>
    <g>
      <path class="cls-3" d="M4222.14,993a178.29,178.29,0,0,1,2.22,30.25c0,22.94-3.17,57.2-16.51,99.86-14.59,46.67-38.43,93.67-70.85,139.69-40.47,57.46-94.51,113.56-160.63,166.75-63.37,50.87-115.86,114.08-156,187.88-32.14,59.08-56.5,125-72.39,196.06a867.59,867.59,0,0,0-20.86,185.4c0,15.9.54,26.38.77,30.06,25.52,12.22,451.83,210.58,493.46,229.94-.54-8.63-1.79-32.48-1.79-66.88,0-55.47,3.27-138.24,18.09-228.3,15.5-94.22,40.43-177.9,74.09-248.72,42.14-88.68,98.16-157.34,166.51-204.09,70.61-48.32,126.89-117.42,167.26-205.4,32.42-70.64,54.73-153.54,66.31-246.41a1229.11,1229.11,0,0,0,9.07-151c0-75.51-6.46-130.48-8.25-144.06C4672,783,4251.66,978.88,4222.14,993Z"/>
      <path class="cls-4" d="M3722.49,1042.28a1015.06,1015.06,0,0,1-5.94-110.34c0-88.43,11.14-152.37,13.88-166.59,38.66,18,445.22,207,486.2,226.43,0,.1,0,.18,0,.28.12.55,10.71,51.45-13.91,129.91-14.47,46.11-38.08,92.57-70.19,138.11-40.17,57-93.82,112.63-159.45,165.43a607.16,607.16,0,0,0-53.44,48.4c-55.13-52.56-99.64-115.59-132.67-188S3732.27,1131.49,3722.49,1042.28Zm889.66,569.32a700.38,700.38,0,0,0-87.58-130.24,443.55,443.55,0,0,1-43.39,33.86c-67.57,46.21-123,114.17-164.72,202-33.45,70.37-58.23,153.56-73.66,247.28-14.53,88.27-17.93,169.48-18,224.73,1.26,27.09,1.56,48.73,1.56,63.1,0,.91,0,1.77,0,2.6.12,2.09.22,3.75.3,5L4716,2031c0-.25,0-.47,0-.82,0-13.48-1.11-104.73-29.32-218.89C4668.79,1739,4643.72,1671.83,4612.15,1611.6Z"/>
    </g>
    <g>
      <circle class="cls-5" cx="3654.3" cy="668.44" r="18.83"/>
      <circle class="cls-5" cx="3639.98" cy="730.8" r="18.83"/>
      <circle class="cls-5" cx="3634.6" cy="798.49" r="18.83"/>
      <circle class="cls-5" cx="3632.91" cy="865.34" r="18.83"/>
      <circle class="cls-5" cx="3634.76" cy="932.37" r="18.83"/>
      <circle class="cls-5" cx="3641.16" cy="1002.92" r="18.83"/>
      <circle class="cls-5" cx="3651.6" cy="1070.11" r="18.83"/>
      <circle class="cls-5" cx="3666.1" cy="1138.95" r="18.83"/>
      <circle class="cls-5" cx="3687.94" cy="1205.11" r="18.83"/>
      <circle class="cls-5" cx="3714.44" cy="1270.95" r="18.83"/>
      <circle class="cls-5" cx="3749.27" cy="1336.61" r="18.83"/>
      <circle class="cls-5" cx="3793.44" cy="1403.45" r="18.83"/>
      <circle class="cls-5" cx="3843.94" cy="1461.61" r="18.83"/>
      <circle class="cls-5" cx="3822.94" cy="1534.11" r="18.83"/>
      <circle class="cls-5" cx="3781.57" cy="1595.84" r="18.83"/>
      <circle class="cls-5" cx="3748.06" cy="1660.11" r="18.83"/>
      <circle class="cls-5" cx="3719.43" cy="1727.98" r="18.83"/>
      <circle class="cls-5" cx="3692.28" cy="1803.28" r="18.83"/>
      <circle class="cls-5" cx="3672.55" cy="1870.31" r="18.83"/>
      <circle class="cls-5" cx="3661.31" cy="1934.58" r="18.83"/>
      <circle class="cls-5" cx="3656.22" cy="2001.18" r="18.83"/>
      <circle class="cls-5" cx="3654.52" cy="2063.12" r="18.83"/>
      <circle class="cls-5" cx="3654.73" cy="2125.9" r="18.83"/>
      <circle class="cls-5" cx="3706.06" cy="2150.51" r="18.83"/>
      <circle class="cls-5" cx="3763.55" cy="2175.11" r="18.83"/>
      <circle class="cls-5" cx="3820.18" cy="2200.36" r="18.83"/>
      <circle class="cls-5" cx="3877.02" cy="2225.81" r="18.83"/>
      <circle class="cls-5" cx="3934.93" cy="2251.05" r="18.83"/>
      <circle class="cls-5" cx="3991.14" cy="2277.56" r="18.83"/>
      <circle class="cls-5" cx="4045.23" cy="2302.38" r="18.83"/>
      <circle class="cls-5" cx="4104.62" cy="2330.8" r="18.83"/>
      <circle class="cls-5" cx="4159.77" cy="2357.11" r="18.83"/>
      <circle class="cls-5" cx="4213.22" cy="2318.71" r="18.83"/>
      <circle class="cls-5" cx="4208.13" cy="2252.53" r="18.83"/>
      <circle class="cls-5" cx="4215.34" cy="2387.44" r="18.83"/>
      <circle class="cls-5" cx="4269.64" cy="2360.08" r="18.83"/>
      <circle class="cls-5" cx="4326.91" cy="2334.62" r="18.83"/>
      <circle class="cls-5" cx="4383.12" cy="2307.26" r="18.83"/>
      <circle class="cls-5" cx="4440.18" cy="2278.41" r="18.83"/>
      <circle class="cls-5" cx="4496.39" cy="2252.32" r="18.83"/>
      <circle class="cls-5" cx="4552.6" cy="2226.45" r="18.83"/>
      <circle class="cls-5" cx="4609.45" cy="2198.87" r="18.83"/>
      <circle class="cls-5" cx="4665.87" cy="2173.84" r="18.83"/>
      <circle class="cls-5" cx="4721.87" cy="2145" r="18.83"/>
      <circle class="cls-5" cx="4723.35" cy="2093.24" r="18.83"/>
      <circle class="cls-5" cx="4778.29" cy="2119.75" r="18.83"/>
      <circle class="cls-5" cx="4781.05" cy="2054.64" r="18.83"/>
      <circle class="cls-5" cx="4777.44" cy="1984.21" r="18.83"/>
      <circle class="cls-5" cx="4770.44" cy="1917.05" r="18.83"/>
      <circle class="cls-5" cx="4757.44" cy="1850.38" r="18.83"/>
      <circle class="cls-5" cx="4736.29" cy="1772.75" r="18.83"/>
      <circle class="cls-5" cx="4707.56" cy="1704.44" r="18.83"/>
      <circle class="cls-5" cx="4675.8" cy="1636.52" r="18.83"/>
      <circle class="cls-5" cx="4640.9" cy="1575.04" r="18.83"/>
      <circle class="cls-5" cx="4601.7" cy="1524.96" r="18.83"/>
      <circle class="cls-5" cx="4592.72" cy="1458.94" r="18.83"/>
      <circle class="cls-5" cx="4633.45" cy="1407.49" r="18.83"/>
      <circle class="cls-5" cx="4674.82" cy="1345.1" r="18.83"/>
      <circle class="cls-5" cx="4707.7" cy="1278.76" r="18.83"/>
      <circle class="cls-5" cx="4733.11" cy="1210.59" r="18.83"/>
      <circle class="cls-5" cx="4754.01" cy="1143.46" r="18.83"/>
      <circle class="cls-5" cx="4767.73" cy="1074" r="18.83"/>
      <circle class="cls-5" cx="4778.62" cy="1007.2" r="18.83"/>
      <circle class="cls-5" cx="4785.2" cy="936.49" r="18.83"/>
      <circle class="cls-5" cx="4789.52" cy="869.68" r="18.83"/>
      <circle class="cls-5" cx="4790.07" cy="802.94" r="18.83"/>
      <circle class="cls-5" cx="4786.17" cy="736.56" r="18.83"/>
      <circle class="cls-5" cx="4536.91" cy="1501.68" r="18.83"/>
      <circle class="cls-5" cx="4487.98" cy="1540.56" r="18.83"/>
      <circle class="cls-5" cx="4522.06" cy="1437.61" r="18.83"/>
      <circle class="cls-5" cx="4464.76" cy="1394.89" r="18.83"/>
      <circle class="cls-5" cx="4410.59" cy="1342.54" r="18.83"/>
      <circle class="cls-5" cx="4669.9" cy="2068.42" r="18.83"/>
      <circle class="cls-5" cx="3714.76" cy="2091.97" r="18.83"/>
      <circle class="cls-5" cx="3772.03" cy="2066.51" r="18.83"/>
      <circle class="cls-5" cx="3922.1" cy="1439.45" r="18.83"/>
      <circle class="cls-5" cx="3896.6" cy="1511.95" r="18.83"/>
      <circle class="cls-5" cx="3947.95" cy="1554.44" r="18.83"/>
      <circle class="cls-5" cx="3996.86" cy="1604.46" r="18.83"/>
      <circle class="cls-5" cx="4039.8" cy="1662.89" r="18.83"/>
      <circle class="cls-5" cx="4077.42" cy="1725.97" r="18.83"/>
      <circle class="cls-5" cx="4110.61" cy="1794.84" r="18.83"/>
      <circle class="cls-5" cx="4136.3" cy="1865.13" r="18.83"/>
      <circle class="cls-5" cx="4151.55" cy="1912.5" r="18.83"/>
      <circle class="cls-5" cx="4167.7" cy="1981.11" r="18.83"/>
      <circle class="cls-5" cx="4182.46" cy="2048.13" r="18.83"/>
      <circle class="cls-5" cx="4194.02" cy="2118.5" r="18.83"/>
      <circle class="cls-5" cx="4235.52" cy="2049.73" r="18.83"/>
      <circle class="cls-5" cx="4233.03" cy="2119.36" r="18.83"/>
      <circle class="cls-5" cx="4208.31" cy="2189.44" r="18.83"/>
      <circle class="cls-5" cx="4247.69" cy="1978.32" r="18.83"/>
      <circle class="cls-5" cx="4264.19" cy="1909.99" r="18.83"/>
      <circle class="cls-5" cx="4287.19" cy="1842.82" r="18.83"/>
      <circle class="cls-5" cx="4315.35" cy="1772.82" r="18.83"/>
      <circle class="cls-5" cx="4351.85" cy="1706.15" r="18.83"/>
      <circle class="cls-5" cx="4392.69" cy="1645.65" r="18.83"/>
      <circle class="cls-5" cx="4437.35" cy="1588.65" r="18.83"/>
      <circle class="cls-5" cx="3705.57" cy="693.38" r="18.83"/>
      <circle class="cls-5" cx="3763.31" cy="718.09" r="18.83"/>
      <circle class="cls-5" cx="3819.66" cy="743.27" r="18.83"/>
      <circle class="cls-5" cx="3876.48" cy="768.67" r="18.83"/>
      <circle class="cls-5" cx="3934.68" cy="793.85" r="18.83"/>
      <circle class="cls-5" cx="3990.8" cy="820.64" r="18.83"/>
      <circle class="cls-5" cx="4044.82" cy="845.33" r="18.83"/>
      <circle class="cls-5" cx="4103.82" cy="873.63" r="18.83"/>
      <circle class="cls-5" cx="4159.04" cy="899.87" r="18.83"/>
      <circle class="cls-5" cx="4216.92" cy="928.91" r="18.83"/>
      <circle class="cls-5" cx="4216.92" cy="992.95" r="18.83"/>
      <circle class="cls-5" cx="4204.79" cy="1056.49" r="18.83"/>
      <circle class="cls-5" cx="4237.12" cy="1054.47" r="18.83"/>
      <circle class="cls-5" cx="4184.35" cy="1118.69" r="18.83"/>
      <circle class="cls-5" cx="4156.73" cy="1176.4" r="18.83"/>
      <circle class="cls-5" cx="4122.64" cy="1232.98" r="18.83"/>
      <circle class="cls-5" cx="4082.56" cy="1285.94" r="18.83"/>
      <circle class="cls-5" cx="4029.52" cy="1344.82" r="18.83"/>
      <circle class="cls-5" cx="3977.31" cy="1391.86" r="18.83"/>
      <circle class="cls-5" cx="4259.36" cy="1116.45" r="18.83"/>
      <circle class="cls-5" cx="4286.3" cy="1174.38" r="18.83"/>
      <circle class="cls-5" cx="4323.93" cy="1234.33" r="18.83"/>
      <circle class="cls-5" cx="4363.58" cy="1289.11" r="18.83"/>
      <circle class="cls-5" cx="4269.22" cy="903.05" r="18.83"/>
      <circle class="cls-5" cx="4326.5" cy="877.6" r="18.83"/>
      <g>
        <circle class="cls-5" cx="3718.54" cy="647.26" r="18.83"/>
        <circle class="cls-5" cx="3783.13" cy="627.48" r="18.83"/>
        <circle class="cls-5" cx="3846.12" cy="606.86" r="18.83"/>
        <circle class="cls-5" cx="3906.88" cy="588.09" r="18.83"/>
        <circle class="cls-5" cx="3966.66" cy="568.33" r="18.83"/>
        <circle class="cls-5" cx="4026.99" cy="548.38" r="18.83"/>
        <circle class="cls-5" cx="4089.36" cy="529.45" r="18.83"/>
        <circle class="cls-5" cx="4152.58" cy="507.99" r="18.83"/>
        <circle class="cls-5" cx="4215.62" cy="488.72" r="18.83"/>
      </g>
      <circle class="cls-5" cx="4279.56" cy="506.93" r="18.83"/>
      <circle class="cls-5" cx="4341.53" cy="526.39" r="18.83"/>
      <circle class="cls-5" cx="4402.97" cy="545.04" r="18.83"/>
      <circle class="cls-5" cx="4465.34" cy="563.57" r="18.83"/>
      <circle class="cls-5" cx="4528.78" cy="583.29" r="18.83"/>
      <circle class="cls-5" cx="4593.15" cy="603.68" r="18.83"/>
      <circle class="cls-5" cx="4653.79" cy="622.88" r="18.83"/>
      <circle class="cls-5" cx="4711.84" cy="641.32" r="18.83"/>
      <circle class="cls-5" cx="4777.85" cy="662.67" r="18.83"/>
      <circle class="cls-5" cx="4721.29" cy="687.94" r="18.83"/>
      <circle class="cls-5" cx="4665.51" cy="716.55" r="18.83"/>
      <circle class="cls-5" cx="4609.2" cy="741.9" r="18.83"/>
      <circle class="cls-5" cx="4551.98" cy="769.52" r="18.83"/>
      <circle class="cls-5" cx="4495.61" cy="794.85" r="18.83"/>
      <circle class="cls-5" cx="4439.47" cy="821.22" r="18.83"/>
      <circle class="cls-5" cx="4382.56" cy="849.86" r="18.83"/>
    </g>
  </g>
</svg>
